<svg xmlns="http://www.w3.org/2000/svg" viewBox="0 0 500 500"><g id="freepik--background-simple--inject-16"><path d="M461.39,243.09q-.52-1.17-1-2.37c-11.66-30.51.28-62.1,3-93,8.75-99.36-106.48-150.3-190.65-135A146.94,146.94,0,0,0,209.15,41.4C191.59,55.23,177.06,73,156.55,82.83c-46.42,22.23-111.48,23.76-118.23,87.42C34.64,205,58.69,234.9,54.79,269c-4.51,39.45-32.72,73.88-28.58,115.16C30.05,422.41,63.69,456,97.61,470c25.24,10.41,53.46,13.26,80.33,9.23,27.75-4.16,50-18.72,73-34,24.76-16.53,47.84-26.94,77.54-29.47,21-1.79,42.22-1.4,63.28-3,27.59-2.11,58-9.61,75.4-32.93,20.86-27.88,23.06-72.3,12.52-104.63C475.77,263.2,466.43,254.25,461.39,243.09Z" style="fill:#FFA801"></path><path d="M461.39,243.09q-.52-1.17-1-2.37c-11.66-30.51.28-62.1,3-93,8.75-99.36-106.48-150.3-190.65-135A146.94,146.94,0,0,0,209.15,41.4C191.59,55.23,177.06,73,156.55,82.83c-46.42,22.23-111.48,23.76-118.23,87.42C34.64,205,58.69,234.9,54.79,269c-4.51,39.45-32.72,73.88-28.58,115.16C30.05,422.41,63.69,456,97.61,470c25.24,10.41,53.46,13.26,80.33,9.23,27.75-4.16,50-18.72,73-34,24.76-16.53,47.84-26.94,77.54-29.47,21-1.79,42.22-1.4,63.28-3,27.59-2.11,58-9.61,75.4-32.93,20.86-27.88,23.06-72.3,12.52-104.63C475.77,263.2,466.43,254.25,461.39,243.09Z" style="fill:#fff;opacity:0.7000000000000001"></path></g><g id="freepik--Graphics--inject-16"><g style="opacity:0.30000000000000004"><polyline points="424.58 220 453.76 220 453.76 268.52 445.82 268.52" style="fill:none;stroke:#000;stroke-linecap:round;stroke-linejoin:round"></polyline><polyline points="442.04 268.52 416.79 268.52 416.79 220 420.51 220" style="fill:none;stroke:#000;stroke-linecap:round;stroke-linejoin:round"></polyline><line x1="435.27" y1="269.32" x2="435.27" y2="288.7" style="fill:none;stroke:#000;stroke-linecap:round;stroke-linejoin:round"></line><polyline points="458.34 289.74 470.91 289.74 470.91 298.94" style="fill:none;stroke:#000;stroke-linecap:round;stroke-linejoin:round"></polyline><line x1="409.74" y1="289.74" x2="455.14" y2="289.74" style="fill:none;stroke:#000;stroke-linecap:round;stroke-linejoin:round"></line><polyline points="399.63 298.74 399.63 289.74 405.09 289.74" style="fill:none;stroke:#000;stroke-linecap:round;stroke-linejoin:round"></polyline><rect x="392.19" y="299.08" width="12.8" height="13.5" style="fill:none;stroke:#000;stroke-linecap:round;stroke-linejoin:round"></rect><rect x="416.06" y="299.08" width="12.8" height="13.5" style="fill:none;stroke:#000;stroke-linecap:round;stroke-linejoin:round"></rect><polyline points="444.75 312.58 439.94 312.58 439.94 299.08 452.74 299.08 452.74 312.58 448.25 312.58" style="fill:none;stroke:#000;stroke-linecap:round;stroke-linejoin:round"></polyline><rect x="463.81" y="299.08" width="12.8" height="13.5" style="fill:none;stroke:#000;stroke-linecap:round;stroke-linejoin:round"></rect><line x1="422.71" y1="298.48" x2="422.71" y2="289.74" style="fill:none;stroke:#000;stroke-linecap:round;stroke-linejoin:round"></line><line x1="446.45" y1="298.48" x2="446.45" y2="289.74" style="fill:none;stroke:#000;stroke-linecap:round;stroke-linejoin:round"></line></g><g style="opacity:0.30000000000000004"><polyline points="76.58 37.55 87.12 37.55 87.12 73.46 59.27 73.46 59.27 37.55 72.5 37.55" style="fill:none;stroke:#000;stroke-linecap:round;stroke-linejoin:round"></polyline><polyline points="43.99 111.56 38.39 111.56 38.39 90.31 53.78 90.31 53.78 111.56 48.06 111.56" style="fill:none;stroke:#000;stroke-linecap:round;stroke-linejoin:round"></polyline><rect x="65.5" y="90.31" width="15.39" height="21.25" style="fill:none;stroke:#000;stroke-linecap:round;stroke-linejoin:round"></rect><polyline points="92.61 100.44 92.61 90.31 108 90.31 108 111.56 92.61 111.56 92.61 103.64" style="fill:none;stroke:#000;stroke-linecap:round;stroke-linejoin:round"></polyline><line x1="57.31" y1="82.35" x2="45.9" y2="90.31" style="fill:none;stroke:#000;stroke-linecap:round;stroke-linejoin:round"></line><line x1="69.95" y1="73.53" x2="59.44" y2="80.86" style="fill:none;stroke:#000;stroke-linecap:round;stroke-linejoin:round"></line><line x1="73.75" y1="74.19" x2="73.75" y2="89.58" style="fill:none;stroke:#000;stroke-linecap:round;stroke-linejoin:round"></line><line x1="78.24" y1="73.53" x2="100.76" y2="90.42" style="fill:none;stroke:#000;stroke-linecap:round;stroke-linejoin:round"></line></g><g style="opacity:0.30000000000000004"><polyline points="213.59 350 220.91 350 220.91 386.12 192.9 386.12 192.9 350 211.23 350" style="fill:none;stroke:#000;stroke-linecap:round;stroke-linejoin:round"></polyline><polyline points="161.99 381.08 158.48 381.08 158.48 359.7 173.96 359.7 173.96 381.08 164.98 381.08" style="fill:none;stroke:#000;stroke-linecap:round;stroke-linejoin:round"></polyline><rect x="199.17" y="403.08" width="15.48" height="21.38" style="fill:none;stroke:#000;stroke-linecap:round;stroke-linejoin:round"></rect><polyline points="246.99 381.08 240.24 381.08 240.24 359.7 255.72 359.7 255.72 381.08 250.41 381.08" style="fill:none;stroke:#000;stroke-linecap:round;stroke-linejoin:round"></polyline><line x1="193" y1="369.66" x2="174.67" y2="369.66" style="fill:none;stroke:#000;stroke-linecap:round;stroke-linejoin:round"></line><line x1="239.71" y1="369.66" x2="221.39" y2="369.66" style="fill:none;stroke:#000;stroke-linecap:round;stroke-linejoin:round"></line><line x1="207.19" y1="397.08" x2="207.19" y2="402.78" style="fill:none;stroke:#000;stroke-linecap:round;stroke-linejoin:round"></line><line x1="207.19" y1="386.62" x2="207.19" y2="393.87" style="fill:none;stroke:#000;stroke-linecap:round;stroke-linejoin:round"></line></g></g><g id="freepik--Window--inject-16"><rect x="144.01" y="39" width="230.86" height="270.54" style="fill:#fff;stroke:#263238;stroke-linecap:round;stroke-linejoin:round"></rect><rect x="144.01" y="39" width="230.85" height="11.39" style="fill:#FFA801;stroke:#263238;stroke-linecap:round;stroke-linejoin:round"></rect><path d="M348,44.33a2.73,2.73,0,1,0-2.73,2.73A2.73,2.73,0,0,0,348,44.33Z" style="fill:#fff;stroke:#263238;stroke-linecap:round;stroke-linejoin:round"></path><path d="M357.49,44.33a2.73,2.73,0,1,0-2.73,2.73A2.73,2.73,0,0,0,357.49,44.33Z" style="fill:#fff;stroke:#263238;stroke-linecap:round;stroke-linejoin:round"></path><circle cx="364.21" cy="44.33" r="2.73" style="fill:#fff;stroke:#263238;stroke-linecap:round;stroke-linejoin:round"></circle><rect x="155.56" y="236.22" width="95.42" height="56.21" style="fill:none;stroke:#263238;stroke-linecap:round;stroke-linejoin:round;stroke-dasharray:3"></rect><rect x="266.67" y="236.22" width="95.42" height="56.21" style="fill:none;stroke:#263238;stroke-linecap:round;stroke-linejoin:round;stroke-dasharray:3"></rect><rect x="268.21" y="66.01" width="92.93" height="152.01" style="fill:none;stroke:#263238;stroke-linecap:round;stroke-linejoin:round;stroke-dasharray:3"></rect></g><g id="freepik--Floor--inject-16"><line x1="293.44" y1="479.4" x2="466.13" y2="479.4" style="fill:none;stroke:#263238;stroke-linecap:round;stroke-linejoin:round"></line><line x1="39.87" y1="479.4" x2="288.13" y2="479.4" style="fill:none;stroke:#263238;stroke-linecap:round;stroke-linejoin:round"></line></g><g id="freepik--character-2--inject-16"><rect x="276.42" y="329.16" width="93.95" height="59.48" style="fill:#263238;stroke:#263238;stroke-linecap:round;stroke-linejoin:round"></rect><circle cx="293.29" cy="345.16" r="8.33" style="fill:#FFA801;stroke:#263238;stroke-linecap:round;stroke-linejoin:round"></circle><polygon points="370.37 358.52 351.89 342.38 331.75 365.07 310.88 352.39 276.42 388.64 370.37 388.64 370.37 358.52" style="fill:#FFA801;stroke:#263238;stroke-linecap:round;stroke-linejoin:round"></polygon><path d="M370.73,340.57a1.64,1.64,0,0,1,1.72.51,3.36,3.36,0,0,1,.68,1.89,8.86,8.86,0,0,1,1.55,2.75c.17,1-1.72,5.66-1.72,5.66l4.8,12.18-6.69-11.5s-3.08-5.49-3.43-6.34a21.34,21.34,0,0,1-.34-4.64c0-.85-.17-2.74.86-1.71a6.29,6.29,0,0,1,1.37,1.89v.68Z" style="fill:#fff;stroke:#263238;stroke-linecap:round;stroke-linejoin:round"></path><path d="M312.58,384l-3.26-.34a25.33,25.33,0,0,0-3.26-.69,10.16,10.16,0,0,0-3.77,2.06c-.69.69-1.72,1-1.2,1.71s3.08-.17,3.08-.17l-2.23,2.92a1.65,1.65,0,0,0,1.2,1.54,3.71,3.71,0,0,0,2.58-.51s2.74.51,3.26.68,6.52-3.43,6.52-3.43Z" style="fill:#fff;stroke:#263238;stroke-linecap:round;stroke-linejoin:round"></path><path d="M330.25,383.11l-1.72,41s.52,27.28,1.55,32.42,1.88,9.61,1.88,9.61l-.85,1.89v2.57s-6.18,4.29-7.55,5.32-2.23,1.54-1.37,2.05,12.35,1.21,14.4,1.21,3.44-.18,3.61-1-.17-7-.17-7,.51-4.11.68-5.31-.51-6.18-.51-9.1.86-22.64,1-26.24,3.08-23.67,3.08-23.67,6.35,45.8,6.69,47.86,3.26,12,3.26,12v2.06c0,.52,1,4.12,1,4.12s0,5.66.86,6.17,4.12.69,5.15-.51-.17-6.18-.17-6.18.34-4.28.34-6-1.2-6.35-1.2-7.55-1.37-37.57-1.37-37.57l.85-37.91-29.33-2.57Z" style="fill:#263238;stroke:#263238;stroke-linecap:round;stroke-linejoin:round"></path><path d="M344.49,332.51s-13.9,6.17-14.59,8.75-.34,40.65-.17,42,8.41,3.26,14.41,3.78,14.58-1.72,15.61-3.78,2.58-18.52,2.58-18.52l1-3.6s7.37,8.4,10.8,9.94,5.15-1.2,4.81-3.94-8.07-16.47-9.27-19.38-1.71-8.24-3.09-9.95-7.54-6.35-7.54-6.35S349.8,328.91,344.49,332.51Z" style="fill:#fff;stroke:#263238;stroke-linecap:round;stroke-linejoin:round"></path><path d="M336.94,336.62s-9.27,3.44-9.78,6-.34,26.42-.34,26.42L312.58,384l2.23,5s24.19-14.58,24.53-17.32,0-25.22,0-25.22" style="fill:#fff;stroke:#263238;stroke-linecap:round;stroke-linejoin:round"></path><line x1="363.36" y1="361.16" x2="366.1" y2="347.78" style="fill:#fff;stroke:#263238;stroke-linecap:round;stroke-linejoin:round"></line><line x1="363.87" y1="359.27" x2="367.64" y2="352.92" style="fill:none;stroke:#263238;stroke-linecap:round;stroke-linejoin:round"></line><path d="M354.94,352a100.28,100.28,0,0,1-9.08,14.35" style="fill:#fff;stroke:#263238;stroke-linecap:round;stroke-linejoin:round"></path><path d="M357.69,346.57s-.42.89-1.15,2.32" style="fill:#fff;stroke:#263238;stroke-linecap:round;stroke-linejoin:round"></path><path d="M346.78,371c-3.06,2.38-7.4,5.63-9.5,6.58" style="fill:none;stroke:#263238;stroke-linecap:round;stroke-linejoin:round"></path><path d="M350.15,368.36l-1.68,1.35" style="fill:none;stroke:#263238;stroke-linecap:round;stroke-linejoin:round"></path><path d="M356.49,321.36l.18,8.06-11.5,2.74,2.23-9.77a4.94,4.94,0,0,1,4.46-3.61A4.51,4.51,0,0,1,356.49,321.36Z" style="fill:#fff;stroke:#263238;stroke-linecap:round;stroke-linejoin:round"></path><path d="M345.86,307.81s-2.75,2.57-2.75,3.6-1.2,2.91-1.71,3.77-2.75,1-2.57,2.4a2.12,2.12,0,0,0,1.54,1.72s-2.06,9.78,1,10.81,8.23-4.46,8.23-4.46l1.2-4.12a41.82,41.82,0,0,0,5.32,1c1.2,0,5-3.43,7-6.52s-2.57-10-8.57-12.18-10.81.86-10.81,2.23S345.86,307.81,345.86,307.81Z" style="fill:#fff;stroke:#263238;stroke-linecap:round;stroke-linejoin:round"></path><path d="M354.61,303.86c-6-2.23-10.81.86-10.81,2.23s1.8,1.67,2,1.71h0s4.29,1.2,4.29,2.4-1,1-1.2,1.54-.52.86.17,1.37l.68.52s-1,5.32-1.37,6.69A2,2,0,0,1,346.2,322c-1,0-4.29-3.26-5.83-2.74,0,0-2.06,9.78,1,10.81s8.23-4.46,8.23-4.46l1.2-4.12a41.82,41.82,0,0,0,5.32,1c1.2,0,5-3.43,7-6.52S360.61,306.09,354.61,303.86Z" style="fill:#263238;stroke:#263238;stroke-linecap:round;stroke-linejoin:round"></path><path d="M344,312.78a2.46,2.46,0,0,1,2.92,1" style="fill:none;stroke:#263238;stroke-linecap:round;stroke-linejoin:round"></path><path d="M343.8,315a3,3,0,0,1,2.74.52" style="fill:none;stroke:#263238;stroke-linecap:round;stroke-linejoin:round"></path><path d="M340.71,322.73a4.78,4.78,0,0,0,3.26,0" style="fill:none;stroke:#fff;stroke-linecap:round;stroke-linejoin:round"></path><path d="M350.15,317.24s1.54-2.4,2.57-1.2.34,4.63-.86,5.32a1.42,1.42,0,0,1-1.88-.17Z" style="fill:#fff;stroke:#263238;stroke-linecap:round;stroke-linejoin:round"></path><path d="M356.49,327.36s-7.89,1.2-9.6,1.72a28.7,28.7,0,0,0-4.63,2.23l-.69,2.57s12-2.57,14.24-2.57a22.62,22.62,0,0,1,3.26.17S358.21,327.19,356.49,327.36Z" style="fill:#fff;stroke:#263238;stroke-linecap:round;stroke-linejoin:round"></path></g><g id="freepik--Documents--inject-16"><polygon points="247.76 113.12 247.76 205.38 175.2 205.38 175.2 188.31 144.01 188.31 144.01 86.15 188.49 86.15 198.84 96.05 198.84 103.23 237.42 103.23 247.76 113.12" style="fill:#263238;stroke:#263238;stroke-linecap:round;stroke-linejoin:round"></polygon><polygon points="194.24 180.43 121.68 180.43 121.68 78.27 183.89 78.27 194.24 88.17 194.24 180.43" style="fill:#fff;stroke:#263238;stroke-linecap:round;stroke-linejoin:round"></polygon><polygon points="183.89 78.27 183.89 88.49 194.24 88.49 183.89 78.27" style="fill:#fff;stroke:#263238;stroke-linecap:round;stroke-linejoin:round"></polygon><line x1="147.34" y1="100.64" x2="181.59" y2="100.64" style="fill:#fff;stroke:#263238;stroke-linecap:round;stroke-linejoin:round"></line><line x1="134.64" y1="100.64" x2="143.55" y2="100.64" style="fill:#fff;stroke:#263238;stroke-linecap:round;stroke-linejoin:round"></line><line x1="164.66" y1="114.76" x2="181.59" y2="114.76" style="fill:#fff;stroke:#263238;stroke-linecap:round;stroke-linejoin:round"></line><line x1="134.64" y1="114.76" x2="161.15" y2="114.76" style="fill:#fff;stroke:#263238;stroke-linecap:round;stroke-linejoin:round"></line><line x1="151.67" y1="128.88" x2="181.59" y2="128.88" style="fill:#fff;stroke:#263238;stroke-linecap:round;stroke-linejoin:round"></line><line x1="134.64" y1="128.88" x2="148.97" y2="128.88" style="fill:#fff;stroke:#263238;stroke-linecap:round;stroke-linejoin:round"></line><line x1="134.64" y1="143" x2="181.59" y2="143" style="fill:#fff;stroke:#263238;stroke-linecap:round;stroke-linejoin:round"></line><line x1="164.12" y1="157.12" x2="181.59" y2="157.12" style="fill:#fff;stroke:#263238;stroke-linecap:round;stroke-linejoin:round"></line><line x1="134.64" y1="157.12" x2="159.25" y2="157.12" style="fill:#fff;stroke:#263238;stroke-linecap:round;stroke-linejoin:round"></line><polygon points="243.16 197.5 170.61 197.5 170.61 95.34 232.82 95.34 243.16 105.24 243.16 197.5" style="fill:#fff;stroke:#263238;stroke-linecap:round;stroke-linejoin:round"></polygon><polygon points="232.82 95.34 232.82 105.57 243.16 105.57 232.82 95.34" style="fill:#fff;stroke:#263238;stroke-linecap:round;stroke-linejoin:round"></polygon><line x1="203.91" y1="117.72" x2="230.52" y2="117.72" style="fill:#fff;stroke:#263238;stroke-linecap:round;stroke-linejoin:round"></line><line x1="183.56" y1="117.72" x2="200.66" y2="117.72" style="fill:#fff;stroke:#263238;stroke-linecap:round;stroke-linejoin:round"></line><line x1="222.59" y1="131.84" x2="230.52" y2="131.84" style="fill:#fff;stroke:#263238;stroke-linecap:round;stroke-linejoin:round"></line><line x1="183.56" y1="131.84" x2="219.61" y2="131.84" style="fill:#fff;stroke:#263238;stroke-linecap:round;stroke-linejoin:round"></line><line x1="225.02" y1="145.96" x2="230.52" y2="145.96" style="fill:#fff;stroke:#263238;stroke-linecap:round;stroke-linejoin:round"></line><line x1="194.71" y1="145.96" x2="221.5" y2="145.96" style="fill:#fff;stroke:#263238;stroke-linecap:round;stroke-linejoin:round"></line><line x1="183.56" y1="145.96" x2="190.11" y2="145.96" style="fill:#fff;stroke:#263238;stroke-linecap:round;stroke-linejoin:round"></line><line x1="207.97" y1="160.08" x2="230.52" y2="160.08" style="fill:#fff;stroke:#263238;stroke-linecap:round;stroke-linejoin:round"></line><line x1="183.56" y1="160.08" x2="204.45" y2="160.08" style="fill:#fff;stroke:#263238;stroke-linecap:round;stroke-linejoin:round"></line><line x1="206.89" y1="174.2" x2="230.52" y2="174.2" style="fill:#fff;stroke:#263238;stroke-linecap:round;stroke-linejoin:round"></line><line x1="183.56" y1="174.2" x2="203.1" y2="174.2" style="fill:#fff;stroke:#263238;stroke-linecap:round;stroke-linejoin:round"></line></g></svg>